<mxfile host="app.diagrams.net" modified="2022-02-16T16:06:15.628Z" agent="5.0 (Windows NT 10.0; Win64; x64) AppleWebKit/537.36 (KHTML, like Gecko) Chrome/98.0.4758.80 Safari/537.36 Edg/98.0.1108.50" etag="RwDWaioUgF89-u3hQvLP" version="16.5.6" type="github">
  <diagram id="Ls9U6gqBjs811DaoiBDX" name="Page-1">
    <mxGraphModel dx="1692" dy="483" grid="1" gridSize="10" guides="1" tooltips="1" connect="1" arrows="1" fold="1" page="1" pageScale="1" pageWidth="827" pageHeight="1169" math="0" shadow="0">
      <root>
        <mxCell id="0" />
        <mxCell id="1" parent="0" />
        <mxCell id="kXBU9kPX4HnNm2tcSIuW-7" style="edgeStyle=none;rounded=0;orthogonalLoop=1;jettySize=auto;html=1;exitX=0.5;exitY=1;exitDx=0;exitDy=0;entryX=0.5;entryY=0;entryDx=0;entryDy=0;strokeColor=default;endArrow=none;endFill=0;" edge="1" parent="1" source="kXBU9kPX4HnNm2tcSIuW-1" target="kXBU9kPX4HnNm2tcSIuW-2">
          <mxGeometry relative="1" as="geometry" />
        </mxCell>
        <mxCell id="kXBU9kPX4HnNm2tcSIuW-1" value="1" style="ellipse;whiteSpace=wrap;html=1;aspect=fixed;" vertex="1" parent="1">
          <mxGeometry x="60" y="40" width="50" height="50" as="geometry" />
        </mxCell>
        <mxCell id="kXBU9kPX4HnNm2tcSIuW-8" style="edgeStyle=none;rounded=0;orthogonalLoop=1;jettySize=auto;html=1;exitX=0;exitY=1;exitDx=0;exitDy=0;entryX=1;entryY=0;entryDx=0;entryDy=0;endArrow=none;endFill=0;strokeColor=default;" edge="1" parent="1" source="kXBU9kPX4HnNm2tcSIuW-2" target="kXBU9kPX4HnNm2tcSIuW-3">
          <mxGeometry relative="1" as="geometry" />
        </mxCell>
        <mxCell id="kXBU9kPX4HnNm2tcSIuW-11" style="edgeStyle=none;rounded=0;orthogonalLoop=1;jettySize=auto;html=1;exitX=1;exitY=1;exitDx=0;exitDy=0;entryX=0;entryY=0;entryDx=0;entryDy=0;endArrow=none;endFill=0;strokeColor=default;" edge="1" parent="1" source="kXBU9kPX4HnNm2tcSIuW-2" target="kXBU9kPX4HnNm2tcSIuW-4">
          <mxGeometry relative="1" as="geometry" />
        </mxCell>
        <mxCell id="kXBU9kPX4HnNm2tcSIuW-2" value="2" style="ellipse;whiteSpace=wrap;html=1;aspect=fixed;" vertex="1" parent="1">
          <mxGeometry x="60" y="140" width="50" height="50" as="geometry" />
        </mxCell>
        <mxCell id="kXBU9kPX4HnNm2tcSIuW-9" style="edgeStyle=none;rounded=0;orthogonalLoop=1;jettySize=auto;html=1;exitX=0;exitY=1;exitDx=0;exitDy=0;entryX=0.76;entryY=-0.044;entryDx=0;entryDy=0;entryPerimeter=0;endArrow=none;endFill=0;strokeColor=default;" edge="1" parent="1" source="kXBU9kPX4HnNm2tcSIuW-3" target="kXBU9kPX4HnNm2tcSIuW-5">
          <mxGeometry relative="1" as="geometry" />
        </mxCell>
        <mxCell id="kXBU9kPX4HnNm2tcSIuW-10" style="edgeStyle=none;rounded=0;orthogonalLoop=1;jettySize=auto;html=1;exitX=1;exitY=1;exitDx=0;exitDy=0;endArrow=none;endFill=0;strokeColor=default;" edge="1" parent="1" source="kXBU9kPX4HnNm2tcSIuW-3" target="kXBU9kPX4HnNm2tcSIuW-6">
          <mxGeometry relative="1" as="geometry" />
        </mxCell>
        <mxCell id="kXBU9kPX4HnNm2tcSIuW-3" value="3" style="ellipse;whiteSpace=wrap;html=1;aspect=fixed;" vertex="1" parent="1">
          <mxGeometry x="-10" y="240" width="50" height="50" as="geometry" />
        </mxCell>
        <mxCell id="kXBU9kPX4HnNm2tcSIuW-4" value="4" style="ellipse;whiteSpace=wrap;html=1;aspect=fixed;" vertex="1" parent="1">
          <mxGeometry x="140" y="240" width="50" height="50" as="geometry" />
        </mxCell>
        <mxCell id="kXBU9kPX4HnNm2tcSIuW-5" value="5" style="ellipse;whiteSpace=wrap;html=1;aspect=fixed;" vertex="1" parent="1">
          <mxGeometry x="-80" y="340" width="50" height="50" as="geometry" />
        </mxCell>
        <mxCell id="kXBU9kPX4HnNm2tcSIuW-6" value="6" style="ellipse;whiteSpace=wrap;html=1;aspect=fixed;" vertex="1" parent="1">
          <mxGeometry x="40" y="340" width="50" height="50" as="geometry" />
        </mxCell>
        <mxCell id="kXBU9kPX4HnNm2tcSIuW-13" value="&lt;font style=&quot;font-size: 15px&quot;&gt;times=5: [[1,2],[1,3],[1,4],[1,5],[1,6]]&lt;/font&gt;" style="text;html=1;align=center;verticalAlign=middle;resizable=0;points=[];autosize=1;strokeColor=none;fillColor=none;" vertex="1" parent="1">
          <mxGeometry x="120" y="55" width="250" height="20" as="geometry" />
        </mxCell>
        <mxCell id="kXBU9kPX4HnNm2tcSIuW-15" value="&lt;font style=&quot;font-size: 15px&quot;&gt;times=5: [[1,2],[2,3],[2,4],[2,5],[2,6]]&lt;/font&gt;" style="text;html=1;align=center;verticalAlign=middle;resizable=0;points=[];autosize=1;strokeColor=none;fillColor=none;" vertex="1" parent="1">
          <mxGeometry x="130" y="155" width="250" height="20" as="geometry" />
        </mxCell>
        <mxCell id="kXBU9kPX4HnNm2tcSIuW-16" style="edgeStyle=none;rounded=0;orthogonalLoop=1;jettySize=auto;html=1;exitX=0.5;exitY=1;exitDx=0;exitDy=0;entryX=0.5;entryY=0;entryDx=0;entryDy=0;strokeColor=default;endArrow=none;endFill=0;" edge="1" parent="1" source="kXBU9kPX4HnNm2tcSIuW-17" target="kXBU9kPX4HnNm2tcSIuW-20">
          <mxGeometry relative="1" as="geometry" />
        </mxCell>
        <mxCell id="kXBU9kPX4HnNm2tcSIuW-32" style="edgeStyle=none;rounded=0;orthogonalLoop=1;jettySize=auto;html=1;exitX=0.5;exitY=1;exitDx=0;exitDy=0;entryX=0.5;entryY=0;entryDx=0;entryDy=0;fontSize=15;endArrow=none;endFill=0;strokeColor=default;" edge="1" parent="1" source="kXBU9kPX4HnNm2tcSIuW-17" target="kXBU9kPX4HnNm2tcSIuW-30">
          <mxGeometry relative="1" as="geometry" />
        </mxCell>
        <mxCell id="kXBU9kPX4HnNm2tcSIuW-33" style="edgeStyle=none;rounded=0;orthogonalLoop=1;jettySize=auto;html=1;exitX=0.5;exitY=1;exitDx=0;exitDy=0;entryX=0.5;entryY=0;entryDx=0;entryDy=0;fontSize=15;endArrow=none;endFill=0;strokeColor=default;" edge="1" parent="1" source="kXBU9kPX4HnNm2tcSIuW-17" target="kXBU9kPX4HnNm2tcSIuW-31">
          <mxGeometry relative="1" as="geometry" />
        </mxCell>
        <mxCell id="kXBU9kPX4HnNm2tcSIuW-17" value="1" style="ellipse;whiteSpace=wrap;html=1;aspect=fixed;" vertex="1" parent="1">
          <mxGeometry x="400" y="300" width="50" height="50" as="geometry" />
        </mxCell>
        <mxCell id="kXBU9kPX4HnNm2tcSIuW-18" style="edgeStyle=none;rounded=0;orthogonalLoop=1;jettySize=auto;html=1;exitX=0;exitY=1;exitDx=0;exitDy=0;entryX=0.5;entryY=0;entryDx=0;entryDy=0;endArrow=none;endFill=0;strokeColor=default;" edge="1" parent="1" source="kXBU9kPX4HnNm2tcSIuW-20" target="kXBU9kPX4HnNm2tcSIuW-23">
          <mxGeometry relative="1" as="geometry" />
        </mxCell>
        <mxCell id="kXBU9kPX4HnNm2tcSIuW-19" style="edgeStyle=none;rounded=0;orthogonalLoop=1;jettySize=auto;html=1;exitX=1;exitY=1;exitDx=0;exitDy=0;entryX=0.5;entryY=0;entryDx=0;entryDy=0;endArrow=none;endFill=0;strokeColor=default;" edge="1" parent="1" source="kXBU9kPX4HnNm2tcSIuW-20" target="kXBU9kPX4HnNm2tcSIuW-24">
          <mxGeometry relative="1" as="geometry" />
        </mxCell>
        <mxCell id="kXBU9kPX4HnNm2tcSIuW-20" value="2" style="ellipse;whiteSpace=wrap;html=1;aspect=fixed;" vertex="1" parent="1">
          <mxGeometry x="280" y="400" width="50" height="50" as="geometry" />
        </mxCell>
        <mxCell id="kXBU9kPX4HnNm2tcSIuW-21" style="edgeStyle=none;rounded=0;orthogonalLoop=1;jettySize=auto;html=1;entryX=0.5;entryY=0;entryDx=0;entryDy=0;endArrow=none;endFill=0;strokeColor=default;" edge="1" parent="1" target="kXBU9kPX4HnNm2tcSIuW-25">
          <mxGeometry relative="1" as="geometry">
            <mxPoint x="240" y="530" as="sourcePoint" />
          </mxGeometry>
        </mxCell>
        <mxCell id="kXBU9kPX4HnNm2tcSIuW-22" style="edgeStyle=none;rounded=0;orthogonalLoop=1;jettySize=auto;html=1;exitX=1;exitY=1;exitDx=0;exitDy=0;endArrow=none;endFill=0;strokeColor=default;" edge="1" parent="1" source="kXBU9kPX4HnNm2tcSIuW-23" target="kXBU9kPX4HnNm2tcSIuW-26">
          <mxGeometry relative="1" as="geometry" />
        </mxCell>
        <mxCell id="kXBU9kPX4HnNm2tcSIuW-23" value="5" style="ellipse;whiteSpace=wrap;html=1;aspect=fixed;" vertex="1" parent="1">
          <mxGeometry x="230" y="490" width="50" height="50" as="geometry" />
        </mxCell>
        <mxCell id="kXBU9kPX4HnNm2tcSIuW-24" value="6" style="ellipse;whiteSpace=wrap;html=1;aspect=fixed;" vertex="1" parent="1">
          <mxGeometry x="330" y="490" width="50" height="50" as="geometry" />
        </mxCell>
        <mxCell id="kXBU9kPX4HnNm2tcSIuW-25" value="10" style="ellipse;whiteSpace=wrap;html=1;aspect=fixed;" vertex="1" parent="1">
          <mxGeometry x="180" y="590" width="50" height="50" as="geometry" />
        </mxCell>
        <mxCell id="kXBU9kPX4HnNm2tcSIuW-26" value="11" style="ellipse;whiteSpace=wrap;html=1;aspect=fixed;" vertex="1" parent="1">
          <mxGeometry x="260" y="590" width="50" height="50" as="geometry" />
        </mxCell>
        <mxCell id="kXBU9kPX4HnNm2tcSIuW-37" style="edgeStyle=none;rounded=0;orthogonalLoop=1;jettySize=auto;html=1;exitX=0.5;exitY=1;exitDx=0;exitDy=0;entryX=0.5;entryY=0;entryDx=0;entryDy=0;fontSize=15;endArrow=none;endFill=0;strokeColor=default;" edge="1" parent="1" source="kXBU9kPX4HnNm2tcSIuW-30" target="kXBU9kPX4HnNm2tcSIuW-34">
          <mxGeometry relative="1" as="geometry" />
        </mxCell>
        <mxCell id="kXBU9kPX4HnNm2tcSIuW-30" value="3" style="ellipse;whiteSpace=wrap;html=1;aspect=fixed;" vertex="1" parent="1">
          <mxGeometry x="440" y="400" width="50" height="50" as="geometry" />
        </mxCell>
        <mxCell id="kXBU9kPX4HnNm2tcSIuW-38" style="edgeStyle=none;rounded=0;orthogonalLoop=1;jettySize=auto;html=1;exitX=0.5;exitY=1;exitDx=0;exitDy=0;entryX=0.652;entryY=-0.044;entryDx=0;entryDy=0;entryPerimeter=0;fontSize=15;endArrow=none;endFill=0;strokeColor=default;" edge="1" parent="1" source="kXBU9kPX4HnNm2tcSIuW-31" target="kXBU9kPX4HnNm2tcSIuW-35">
          <mxGeometry relative="1" as="geometry" />
        </mxCell>
        <mxCell id="kXBU9kPX4HnNm2tcSIuW-39" style="edgeStyle=none;rounded=0;orthogonalLoop=1;jettySize=auto;html=1;exitX=0.5;exitY=1;exitDx=0;exitDy=0;entryX=0.324;entryY=0.036;entryDx=0;entryDy=0;entryPerimeter=0;fontSize=15;endArrow=none;endFill=0;strokeColor=default;" edge="1" parent="1" source="kXBU9kPX4HnNm2tcSIuW-31" target="kXBU9kPX4HnNm2tcSIuW-36">
          <mxGeometry relative="1" as="geometry" />
        </mxCell>
        <mxCell id="kXBU9kPX4HnNm2tcSIuW-31" value="4" style="ellipse;whiteSpace=wrap;html=1;aspect=fixed;" vertex="1" parent="1">
          <mxGeometry x="600" y="400" width="50" height="50" as="geometry" />
        </mxCell>
        <mxCell id="kXBU9kPX4HnNm2tcSIuW-34" value="7" style="ellipse;whiteSpace=wrap;html=1;aspect=fixed;" vertex="1" parent="1">
          <mxGeometry x="440" y="490" width="50" height="50" as="geometry" />
        </mxCell>
        <mxCell id="kXBU9kPX4HnNm2tcSIuW-35" value="8" style="ellipse;whiteSpace=wrap;html=1;aspect=fixed;" vertex="1" parent="1">
          <mxGeometry x="560" y="490" width="50" height="50" as="geometry" />
        </mxCell>
        <mxCell id="kXBU9kPX4HnNm2tcSIuW-36" value="9" style="ellipse;whiteSpace=wrap;html=1;aspect=fixed;" vertex="1" parent="1">
          <mxGeometry x="640" y="490" width="50" height="50" as="geometry" />
        </mxCell>
        <mxCell id="kXBU9kPX4HnNm2tcSIuW-40" value="times=5" style="text;html=1;align=center;verticalAlign=middle;resizable=0;points=[];autosize=1;strokeColor=none;fillColor=none;fontSize=15;" vertex="1" parent="1">
          <mxGeometry x="330" y="415" width="70" height="20" as="geometry" />
        </mxCell>
        <mxCell id="kXBU9kPX4HnNm2tcSIuW-41" value="times=2" style="text;html=1;align=center;verticalAlign=middle;resizable=0;points=[];autosize=1;strokeColor=none;fillColor=none;fontSize=15;" vertex="1" parent="1">
          <mxGeometry x="490" y="415" width="70" height="20" as="geometry" />
        </mxCell>
        <mxCell id="kXBU9kPX4HnNm2tcSIuW-44" value="times=3" style="text;html=1;align=center;verticalAlign=middle;resizable=0;points=[];autosize=1;strokeColor=none;fillColor=none;fontSize=15;" vertex="1" parent="1">
          <mxGeometry x="650" y="415" width="70" height="20" as="geometry" />
        </mxCell>
        <mxCell id="kXBU9kPX4HnNm2tcSIuW-45" value="times=10" style="text;html=1;align=center;verticalAlign=middle;resizable=0;points=[];autosize=1;strokeColor=none;fillColor=none;fontSize=15;" vertex="1" parent="1">
          <mxGeometry x="450" y="315" width="80" height="20" as="geometry" />
        </mxCell>
        <mxCell id="kXBU9kPX4HnNm2tcSIuW-46" value="times=4" style="text;html=1;align=center;verticalAlign=middle;resizable=0;points=[];autosize=1;strokeColor=none;fillColor=none;fontSize=15;" vertex="1" parent="1">
          <mxGeometry x="160" y="505" width="70" height="20" as="geometry" />
        </mxCell>
        <mxCell id="kXBU9kPX4HnNm2tcSIuW-47" value="times=2" style="text;html=1;align=center;verticalAlign=middle;resizable=0;points=[];autosize=1;strokeColor=none;fillColor=none;fontSize=15;" vertex="1" parent="1">
          <mxGeometry x="320" y="540" width="70" height="20" as="geometry" />
        </mxCell>
        <mxCell id="kXBU9kPX4HnNm2tcSIuW-48" value="times=2" style="text;html=1;align=center;verticalAlign=middle;resizable=0;points=[];autosize=1;strokeColor=none;fillColor=none;fontSize=15;" vertex="1" parent="1">
          <mxGeometry x="430" y="540" width="70" height="20" as="geometry" />
        </mxCell>
        <mxCell id="kXBU9kPX4HnNm2tcSIuW-49" value="times=2" style="text;html=1;align=center;verticalAlign=middle;resizable=0;points=[];autosize=1;strokeColor=none;fillColor=none;fontSize=15;" vertex="1" parent="1">
          <mxGeometry x="550" y="540" width="70" height="20" as="geometry" />
        </mxCell>
        <mxCell id="kXBU9kPX4HnNm2tcSIuW-50" value="times=2" style="text;html=1;align=center;verticalAlign=middle;resizable=0;points=[];autosize=1;strokeColor=none;fillColor=none;fontSize=15;" vertex="1" parent="1">
          <mxGeometry x="640" y="540" width="70" height="20" as="geometry" />
        </mxCell>
        <mxCell id="kXBU9kPX4HnNm2tcSIuW-51" value="times=3" style="text;html=1;align=center;verticalAlign=middle;resizable=0;points=[];autosize=1;strokeColor=none;fillColor=none;fontSize=15;" vertex="1" parent="1">
          <mxGeometry x="160" y="640" width="70" height="20" as="geometry" />
        </mxCell>
        <mxCell id="kXBU9kPX4HnNm2tcSIuW-52" value="times=3" style="text;html=1;align=center;verticalAlign=middle;resizable=0;points=[];autosize=1;strokeColor=none;fillColor=none;fontSize=15;" vertex="1" parent="1">
          <mxGeometry x="250" y="640" width="70" height="20" as="geometry" />
        </mxCell>
        <mxCell id="kXBU9kPX4HnNm2tcSIuW-54" style="edgeStyle=none;rounded=0;orthogonalLoop=1;jettySize=auto;html=1;exitX=0.5;exitY=1;exitDx=0;exitDy=0;entryX=0.5;entryY=0;entryDx=0;entryDy=0;strokeColor=default;endArrow=none;endFill=0;" edge="1" parent="1" source="kXBU9kPX4HnNm2tcSIuW-57" target="kXBU9kPX4HnNm2tcSIuW-60">
          <mxGeometry relative="1" as="geometry" />
        </mxCell>
        <mxCell id="kXBU9kPX4HnNm2tcSIuW-55" style="edgeStyle=none;rounded=0;orthogonalLoop=1;jettySize=auto;html=1;exitX=0.5;exitY=1;exitDx=0;exitDy=0;entryX=0.5;entryY=0;entryDx=0;entryDy=0;fontSize=15;endArrow=none;endFill=0;strokeColor=default;" edge="1" parent="1" source="kXBU9kPX4HnNm2tcSIuW-57" target="kXBU9kPX4HnNm2tcSIuW-68">
          <mxGeometry relative="1" as="geometry" />
        </mxCell>
        <mxCell id="kXBU9kPX4HnNm2tcSIuW-56" style="edgeStyle=none;rounded=0;orthogonalLoop=1;jettySize=auto;html=1;exitX=0.5;exitY=1;exitDx=0;exitDy=0;entryX=0.5;entryY=0;entryDx=0;entryDy=0;fontSize=15;endArrow=none;endFill=0;strokeColor=default;" edge="1" parent="1" source="kXBU9kPX4HnNm2tcSIuW-57" target="kXBU9kPX4HnNm2tcSIuW-71">
          <mxGeometry relative="1" as="geometry" />
        </mxCell>
        <mxCell id="kXBU9kPX4HnNm2tcSIuW-57" value="1" style="ellipse;whiteSpace=wrap;html=1;aspect=fixed;fillColor=#f8cecc;strokeColor=#b85450;" vertex="1" parent="1">
          <mxGeometry x="265" y="710" width="50" height="50" as="geometry" />
        </mxCell>
        <mxCell id="kXBU9kPX4HnNm2tcSIuW-58" style="edgeStyle=none;rounded=0;orthogonalLoop=1;jettySize=auto;html=1;exitX=0;exitY=1;exitDx=0;exitDy=0;entryX=0.5;entryY=0;entryDx=0;entryDy=0;endArrow=none;endFill=0;strokeColor=default;" edge="1" parent="1" source="kXBU9kPX4HnNm2tcSIuW-60" target="kXBU9kPX4HnNm2tcSIuW-63">
          <mxGeometry relative="1" as="geometry" />
        </mxCell>
        <mxCell id="kXBU9kPX4HnNm2tcSIuW-59" style="edgeStyle=none;rounded=0;orthogonalLoop=1;jettySize=auto;html=1;exitX=1;exitY=1;exitDx=0;exitDy=0;entryX=0.5;entryY=0;entryDx=0;entryDy=0;endArrow=none;endFill=0;strokeColor=default;" edge="1" parent="1" source="kXBU9kPX4HnNm2tcSIuW-60" target="kXBU9kPX4HnNm2tcSIuW-64">
          <mxGeometry relative="1" as="geometry" />
        </mxCell>
        <mxCell id="kXBU9kPX4HnNm2tcSIuW-60" value="2" style="ellipse;whiteSpace=wrap;html=1;aspect=fixed;fillColor=#f8cecc;strokeColor=#b85450;" vertex="1" parent="1">
          <mxGeometry x="145" y="810" width="50" height="50" as="geometry" />
        </mxCell>
        <mxCell id="kXBU9kPX4HnNm2tcSIuW-61" style="edgeStyle=none;rounded=0;orthogonalLoop=1;jettySize=auto;html=1;entryX=0.5;entryY=0;entryDx=0;entryDy=0;endArrow=none;endFill=0;strokeColor=default;" edge="1" parent="1" target="kXBU9kPX4HnNm2tcSIuW-65">
          <mxGeometry relative="1" as="geometry">
            <mxPoint x="105" y="940" as="sourcePoint" />
          </mxGeometry>
        </mxCell>
        <mxCell id="kXBU9kPX4HnNm2tcSIuW-62" style="edgeStyle=none;rounded=0;orthogonalLoop=1;jettySize=auto;html=1;exitX=1;exitY=1;exitDx=0;exitDy=0;endArrow=none;endFill=0;strokeColor=default;" edge="1" parent="1" source="kXBU9kPX4HnNm2tcSIuW-63" target="kXBU9kPX4HnNm2tcSIuW-66">
          <mxGeometry relative="1" as="geometry" />
        </mxCell>
        <mxCell id="kXBU9kPX4HnNm2tcSIuW-63" value="5" style="ellipse;whiteSpace=wrap;html=1;aspect=fixed;fillColor=#f8cecc;strokeColor=#b85450;" vertex="1" parent="1">
          <mxGeometry x="95" y="900" width="50" height="50" as="geometry" />
        </mxCell>
        <mxCell id="kXBU9kPX4HnNm2tcSIuW-64" value="6" style="ellipse;whiteSpace=wrap;html=1;aspect=fixed;fillColor=#d5e8d4;strokeColor=#82b366;" vertex="1" parent="1">
          <mxGeometry x="195" y="900" width="50" height="50" as="geometry" />
        </mxCell>
        <mxCell id="kXBU9kPX4HnNm2tcSIuW-65" value="10" style="ellipse;whiteSpace=wrap;html=1;aspect=fixed;fillColor=#d5e8d4;strokeColor=#82b366;" vertex="1" parent="1">
          <mxGeometry x="45" y="1000" width="50" height="50" as="geometry" />
        </mxCell>
        <mxCell id="kXBU9kPX4HnNm2tcSIuW-66" value="11" style="ellipse;whiteSpace=wrap;html=1;aspect=fixed;fillColor=#d5e8d4;strokeColor=#82b366;" vertex="1" parent="1">
          <mxGeometry x="125" y="1000" width="50" height="50" as="geometry" />
        </mxCell>
        <mxCell id="kXBU9kPX4HnNm2tcSIuW-67" style="edgeStyle=none;rounded=0;orthogonalLoop=1;jettySize=auto;html=1;exitX=0.5;exitY=1;exitDx=0;exitDy=0;entryX=0.5;entryY=0;entryDx=0;entryDy=0;fontSize=15;endArrow=none;endFill=0;strokeColor=default;" edge="1" parent="1" source="kXBU9kPX4HnNm2tcSIuW-68" target="kXBU9kPX4HnNm2tcSIuW-72">
          <mxGeometry relative="1" as="geometry" />
        </mxCell>
        <mxCell id="kXBU9kPX4HnNm2tcSIuW-68" value="3" style="ellipse;whiteSpace=wrap;html=1;aspect=fixed;" vertex="1" parent="1">
          <mxGeometry x="305" y="810" width="50" height="50" as="geometry" />
        </mxCell>
        <mxCell id="kXBU9kPX4HnNm2tcSIuW-69" style="edgeStyle=none;rounded=0;orthogonalLoop=1;jettySize=auto;html=1;exitX=0.5;exitY=1;exitDx=0;exitDy=0;entryX=0.652;entryY=-0.044;entryDx=0;entryDy=0;entryPerimeter=0;fontSize=15;endArrow=none;endFill=0;strokeColor=default;" edge="1" parent="1" source="kXBU9kPX4HnNm2tcSIuW-71" target="kXBU9kPX4HnNm2tcSIuW-73">
          <mxGeometry relative="1" as="geometry" />
        </mxCell>
        <mxCell id="kXBU9kPX4HnNm2tcSIuW-70" style="edgeStyle=none;rounded=0;orthogonalLoop=1;jettySize=auto;html=1;exitX=0.5;exitY=1;exitDx=0;exitDy=0;entryX=0.324;entryY=0.036;entryDx=0;entryDy=0;entryPerimeter=0;fontSize=15;endArrow=none;endFill=0;strokeColor=default;" edge="1" parent="1" source="kXBU9kPX4HnNm2tcSIuW-71" target="kXBU9kPX4HnNm2tcSIuW-74">
          <mxGeometry relative="1" as="geometry" />
        </mxCell>
        <mxCell id="kXBU9kPX4HnNm2tcSIuW-71" value="4" style="ellipse;whiteSpace=wrap;html=1;aspect=fixed;" vertex="1" parent="1">
          <mxGeometry x="465" y="810" width="50" height="50" as="geometry" />
        </mxCell>
        <mxCell id="kXBU9kPX4HnNm2tcSIuW-72" value="7" style="ellipse;whiteSpace=wrap;html=1;aspect=fixed;" vertex="1" parent="1">
          <mxGeometry x="305" y="900" width="50" height="50" as="geometry" />
        </mxCell>
        <mxCell id="kXBU9kPX4HnNm2tcSIuW-73" value="8" style="ellipse;whiteSpace=wrap;html=1;aspect=fixed;" vertex="1" parent="1">
          <mxGeometry x="425" y="900" width="50" height="50" as="geometry" />
        </mxCell>
        <mxCell id="kXBU9kPX4HnNm2tcSIuW-74" value="9" style="ellipse;whiteSpace=wrap;html=1;aspect=fixed;" vertex="1" parent="1">
          <mxGeometry x="505" y="900" width="50" height="50" as="geometry" />
        </mxCell>
        <mxCell id="kXBU9kPX4HnNm2tcSIuW-75" value="times=5" style="text;html=1;align=center;verticalAlign=middle;resizable=0;points=[];autosize=1;strokeColor=none;fillColor=none;fontSize=15;" vertex="1" parent="1">
          <mxGeometry x="195" y="825" width="70" height="20" as="geometry" />
        </mxCell>
        <mxCell id="kXBU9kPX4HnNm2tcSIuW-76" value="times=2" style="text;html=1;align=center;verticalAlign=middle;resizable=0;points=[];autosize=1;strokeColor=none;fillColor=none;fontSize=15;" vertex="1" parent="1">
          <mxGeometry x="355" y="825" width="70" height="20" as="geometry" />
        </mxCell>
        <mxCell id="kXBU9kPX4HnNm2tcSIuW-77" value="times=3" style="text;html=1;align=center;verticalAlign=middle;resizable=0;points=[];autosize=1;strokeColor=none;fillColor=none;fontSize=15;" vertex="1" parent="1">
          <mxGeometry x="515" y="825" width="70" height="20" as="geometry" />
        </mxCell>
        <mxCell id="kXBU9kPX4HnNm2tcSIuW-78" value="times=10" style="text;html=1;align=center;verticalAlign=middle;resizable=0;points=[];autosize=1;strokeColor=none;fillColor=none;fontSize=15;" vertex="1" parent="1">
          <mxGeometry x="315" y="725" width="80" height="20" as="geometry" />
        </mxCell>
        <mxCell id="kXBU9kPX4HnNm2tcSIuW-79" value="times=4" style="text;html=1;align=center;verticalAlign=middle;resizable=0;points=[];autosize=1;strokeColor=none;fillColor=none;fontSize=15;" vertex="1" parent="1">
          <mxGeometry x="25" y="915" width="70" height="20" as="geometry" />
        </mxCell>
        <mxCell id="kXBU9kPX4HnNm2tcSIuW-80" value="times=2" style="text;html=1;align=center;verticalAlign=middle;resizable=0;points=[];autosize=1;strokeColor=none;fillColor=none;fontSize=15;" vertex="1" parent="1">
          <mxGeometry x="185" y="950" width="70" height="20" as="geometry" />
        </mxCell>
        <mxCell id="kXBU9kPX4HnNm2tcSIuW-81" value="times=2" style="text;html=1;align=center;verticalAlign=middle;resizable=0;points=[];autosize=1;strokeColor=none;fillColor=none;fontSize=15;" vertex="1" parent="1">
          <mxGeometry x="295" y="950" width="70" height="20" as="geometry" />
        </mxCell>
        <mxCell id="kXBU9kPX4HnNm2tcSIuW-82" value="times=2" style="text;html=1;align=center;verticalAlign=middle;resizable=0;points=[];autosize=1;strokeColor=none;fillColor=none;fontSize=15;" vertex="1" parent="1">
          <mxGeometry x="415" y="950" width="70" height="20" as="geometry" />
        </mxCell>
        <mxCell id="kXBU9kPX4HnNm2tcSIuW-83" value="times=2" style="text;html=1;align=center;verticalAlign=middle;resizable=0;points=[];autosize=1;strokeColor=none;fillColor=none;fontSize=15;" vertex="1" parent="1">
          <mxGeometry x="505" y="950" width="70" height="20" as="geometry" />
        </mxCell>
        <mxCell id="kXBU9kPX4HnNm2tcSIuW-84" value="times=3" style="text;html=1;align=center;verticalAlign=middle;resizable=0;points=[];autosize=1;strokeColor=none;fillColor=none;fontSize=15;" vertex="1" parent="1">
          <mxGeometry x="25" y="1050" width="70" height="20" as="geometry" />
        </mxCell>
        <mxCell id="kXBU9kPX4HnNm2tcSIuW-85" value="times=3" style="text;html=1;align=center;verticalAlign=middle;resizable=0;points=[];autosize=1;strokeColor=none;fillColor=none;fontSize=15;" vertex="1" parent="1">
          <mxGeometry x="115" y="1050" width="70" height="20" as="geometry" />
        </mxCell>
        <mxCell id="kXBU9kPX4HnNm2tcSIuW-86" style="edgeStyle=none;rounded=0;orthogonalLoop=1;jettySize=auto;html=1;exitX=0.5;exitY=1;exitDx=0;exitDy=0;entryX=0.5;entryY=0;entryDx=0;entryDy=0;strokeColor=default;endArrow=none;endFill=0;" edge="1" parent="1" source="kXBU9kPX4HnNm2tcSIuW-89" target="kXBU9kPX4HnNm2tcSIuW-92">
          <mxGeometry relative="1" as="geometry" />
        </mxCell>
        <mxCell id="kXBU9kPX4HnNm2tcSIuW-87" style="edgeStyle=none;rounded=0;orthogonalLoop=1;jettySize=auto;html=1;exitX=0.5;exitY=1;exitDx=0;exitDy=0;entryX=0.5;entryY=0;entryDx=0;entryDy=0;fontSize=15;endArrow=none;endFill=0;strokeColor=default;" edge="1" parent="1" source="kXBU9kPX4HnNm2tcSIuW-89" target="kXBU9kPX4HnNm2tcSIuW-100">
          <mxGeometry relative="1" as="geometry" />
        </mxCell>
        <mxCell id="kXBU9kPX4HnNm2tcSIuW-88" style="edgeStyle=none;rounded=0;orthogonalLoop=1;jettySize=auto;html=1;exitX=0.5;exitY=1;exitDx=0;exitDy=0;entryX=0.5;entryY=0;entryDx=0;entryDy=0;fontSize=15;endArrow=none;endFill=0;strokeColor=default;" edge="1" parent="1" source="kXBU9kPX4HnNm2tcSIuW-89" target="kXBU9kPX4HnNm2tcSIuW-103">
          <mxGeometry relative="1" as="geometry" />
        </mxCell>
        <mxCell id="kXBU9kPX4HnNm2tcSIuW-89" value="1" style="ellipse;whiteSpace=wrap;html=1;aspect=fixed;fillColor=#f8cecc;strokeColor=#b85450;" vertex="1" parent="1">
          <mxGeometry x="-430" y="725" width="50" height="50" as="geometry" />
        </mxCell>
        <mxCell id="kXBU9kPX4HnNm2tcSIuW-90" style="edgeStyle=none;rounded=0;orthogonalLoop=1;jettySize=auto;html=1;exitX=0.5;exitY=1;exitDx=0;exitDy=0;entryX=0.5;entryY=0;entryDx=0;entryDy=0;endArrow=none;endFill=0;strokeColor=default;" edge="1" parent="1" source="kXBU9kPX4HnNm2tcSIuW-92" target="kXBU9kPX4HnNm2tcSIuW-95">
          <mxGeometry relative="1" as="geometry" />
        </mxCell>
        <mxCell id="kXBU9kPX4HnNm2tcSIuW-92" value="2" style="ellipse;whiteSpace=wrap;html=1;aspect=fixed;fillColor=#f8cecc;strokeColor=#b85450;" vertex="1" parent="1">
          <mxGeometry x="-550" y="825" width="50" height="50" as="geometry" />
        </mxCell>
        <mxCell id="kXBU9kPX4HnNm2tcSIuW-93" style="edgeStyle=none;rounded=0;orthogonalLoop=1;jettySize=auto;html=1;entryX=0.5;entryY=0;entryDx=0;entryDy=0;endArrow=none;endFill=0;strokeColor=default;" edge="1" parent="1" target="kXBU9kPX4HnNm2tcSIuW-97">
          <mxGeometry relative="1" as="geometry">
            <mxPoint x="-540" y="970" as="sourcePoint" />
          </mxGeometry>
        </mxCell>
        <mxCell id="kXBU9kPX4HnNm2tcSIuW-94" style="edgeStyle=none;rounded=0;orthogonalLoop=1;jettySize=auto;html=1;exitX=1;exitY=1;exitDx=0;exitDy=0;endArrow=none;endFill=0;strokeColor=default;" edge="1" parent="1" source="kXBU9kPX4HnNm2tcSIuW-95" target="kXBU9kPX4HnNm2tcSIuW-98">
          <mxGeometry relative="1" as="geometry" />
        </mxCell>
        <mxCell id="kXBU9kPX4HnNm2tcSIuW-95" value="5" style="ellipse;whiteSpace=wrap;html=1;aspect=fixed;fillColor=#f8cecc;strokeColor=#b85450;" vertex="1" parent="1">
          <mxGeometry x="-550" y="930" width="50" height="50" as="geometry" />
        </mxCell>
        <mxCell id="kXBU9kPX4HnNm2tcSIuW-97" value="10" style="ellipse;whiteSpace=wrap;html=1;aspect=fixed;fillColor=#d5e8d4;strokeColor=#82b366;" vertex="1" parent="1">
          <mxGeometry x="-600" y="1030" width="50" height="50" as="geometry" />
        </mxCell>
        <mxCell id="kXBU9kPX4HnNm2tcSIuW-98" value="11" style="ellipse;whiteSpace=wrap;html=1;aspect=fixed;fillColor=#d5e8d4;strokeColor=#82b366;" vertex="1" parent="1">
          <mxGeometry x="-520" y="1030" width="50" height="50" as="geometry" />
        </mxCell>
        <mxCell id="kXBU9kPX4HnNm2tcSIuW-99" style="edgeStyle=none;rounded=0;orthogonalLoop=1;jettySize=auto;html=1;exitX=0.5;exitY=1;exitDx=0;exitDy=0;entryX=0.5;entryY=0;entryDx=0;entryDy=0;fontSize=15;endArrow=none;endFill=0;strokeColor=default;" edge="1" parent="1" source="kXBU9kPX4HnNm2tcSIuW-100" target="kXBU9kPX4HnNm2tcSIuW-104">
          <mxGeometry relative="1" as="geometry" />
        </mxCell>
        <mxCell id="kXBU9kPX4HnNm2tcSIuW-100" value="3" style="ellipse;whiteSpace=wrap;html=1;aspect=fixed;" vertex="1" parent="1">
          <mxGeometry x="-390" y="825" width="50" height="50" as="geometry" />
        </mxCell>
        <mxCell id="kXBU9kPX4HnNm2tcSIuW-101" style="edgeStyle=none;rounded=0;orthogonalLoop=1;jettySize=auto;html=1;exitX=0.5;exitY=1;exitDx=0;exitDy=0;entryX=0.652;entryY=-0.044;entryDx=0;entryDy=0;entryPerimeter=0;fontSize=15;endArrow=none;endFill=0;strokeColor=default;" edge="1" parent="1" source="kXBU9kPX4HnNm2tcSIuW-103" target="kXBU9kPX4HnNm2tcSIuW-105">
          <mxGeometry relative="1" as="geometry" />
        </mxCell>
        <mxCell id="kXBU9kPX4HnNm2tcSIuW-102" style="edgeStyle=none;rounded=0;orthogonalLoop=1;jettySize=auto;html=1;exitX=0.5;exitY=1;exitDx=0;exitDy=0;entryX=0.324;entryY=0.036;entryDx=0;entryDy=0;entryPerimeter=0;fontSize=15;endArrow=none;endFill=0;strokeColor=default;" edge="1" parent="1" source="kXBU9kPX4HnNm2tcSIuW-103" target="kXBU9kPX4HnNm2tcSIuW-106">
          <mxGeometry relative="1" as="geometry" />
        </mxCell>
        <mxCell id="kXBU9kPX4HnNm2tcSIuW-103" value="4" style="ellipse;whiteSpace=wrap;html=1;aspect=fixed;" vertex="1" parent="1">
          <mxGeometry x="-230" y="825" width="50" height="50" as="geometry" />
        </mxCell>
        <mxCell id="kXBU9kPX4HnNm2tcSIuW-104" value="7" style="ellipse;whiteSpace=wrap;html=1;aspect=fixed;" vertex="1" parent="1">
          <mxGeometry x="-390" y="915" width="50" height="50" as="geometry" />
        </mxCell>
        <mxCell id="kXBU9kPX4HnNm2tcSIuW-105" value="8" style="ellipse;whiteSpace=wrap;html=1;aspect=fixed;" vertex="1" parent="1">
          <mxGeometry x="-270" y="915" width="50" height="50" as="geometry" />
        </mxCell>
        <mxCell id="kXBU9kPX4HnNm2tcSIuW-106" value="9" style="ellipse;whiteSpace=wrap;html=1;aspect=fixed;" vertex="1" parent="1">
          <mxGeometry x="-190" y="915" width="50" height="50" as="geometry" />
        </mxCell>
        <mxCell id="kXBU9kPX4HnNm2tcSIuW-107" value="times=4" style="text;html=1;align=center;verticalAlign=middle;resizable=0;points=[];autosize=1;strokeColor=none;fillColor=none;fontSize=15;" vertex="1" parent="1">
          <mxGeometry x="-500" y="840" width="70" height="20" as="geometry" />
        </mxCell>
        <mxCell id="kXBU9kPX4HnNm2tcSIuW-108" value="times=2" style="text;html=1;align=center;verticalAlign=middle;resizable=0;points=[];autosize=1;strokeColor=none;fillColor=none;fontSize=15;" vertex="1" parent="1">
          <mxGeometry x="-340" y="840" width="70" height="20" as="geometry" />
        </mxCell>
        <mxCell id="kXBU9kPX4HnNm2tcSIuW-109" value="times=3" style="text;html=1;align=center;verticalAlign=middle;resizable=0;points=[];autosize=1;strokeColor=none;fillColor=none;fontSize=15;" vertex="1" parent="1">
          <mxGeometry x="-180" y="840" width="70" height="20" as="geometry" />
        </mxCell>
        <mxCell id="kXBU9kPX4HnNm2tcSIuW-111" value="times=4" style="text;html=1;align=center;verticalAlign=middle;resizable=0;points=[];autosize=1;strokeColor=none;fillColor=none;fontSize=15;" vertex="1" parent="1">
          <mxGeometry x="-620" y="945" width="70" height="20" as="geometry" />
        </mxCell>
        <mxCell id="kXBU9kPX4HnNm2tcSIuW-113" value="times=2" style="text;html=1;align=center;verticalAlign=middle;resizable=0;points=[];autosize=1;strokeColor=none;fillColor=none;fontSize=15;" vertex="1" parent="1">
          <mxGeometry x="-400" y="965" width="70" height="20" as="geometry" />
        </mxCell>
        <mxCell id="kXBU9kPX4HnNm2tcSIuW-114" value="times=2" style="text;html=1;align=center;verticalAlign=middle;resizable=0;points=[];autosize=1;strokeColor=none;fillColor=none;fontSize=15;" vertex="1" parent="1">
          <mxGeometry x="-280" y="965" width="70" height="20" as="geometry" />
        </mxCell>
        <mxCell id="kXBU9kPX4HnNm2tcSIuW-115" value="times=2" style="text;html=1;align=center;verticalAlign=middle;resizable=0;points=[];autosize=1;strokeColor=none;fillColor=none;fontSize=15;" vertex="1" parent="1">
          <mxGeometry x="-190" y="965" width="70" height="20" as="geometry" />
        </mxCell>
        <mxCell id="kXBU9kPX4HnNm2tcSIuW-116" value="times=3" style="text;html=1;align=center;verticalAlign=middle;resizable=0;points=[];autosize=1;strokeColor=none;fillColor=none;fontSize=15;" vertex="1" parent="1">
          <mxGeometry x="-620" y="1080" width="70" height="20" as="geometry" />
        </mxCell>
        <mxCell id="kXBU9kPX4HnNm2tcSIuW-117" value="times=3" style="text;html=1;align=center;verticalAlign=middle;resizable=0;points=[];autosize=1;strokeColor=none;fillColor=none;fontSize=15;" vertex="1" parent="1">
          <mxGeometry x="-530" y="1080" width="70" height="20" as="geometry" />
        </mxCell>
        <mxCell id="kXBU9kPX4HnNm2tcSIuW-123" style="edgeStyle=none;rounded=0;orthogonalLoop=1;jettySize=auto;html=1;exitX=0;exitY=1;exitDx=0;exitDy=0;entryX=0.76;entryY=0.087;entryDx=0;entryDy=0;entryPerimeter=0;fontSize=15;endArrow=none;endFill=0;strokeColor=default;" edge="1" parent="1" source="kXBU9kPX4HnNm2tcSIuW-118" target="kXBU9kPX4HnNm2tcSIuW-119">
          <mxGeometry relative="1" as="geometry" />
        </mxCell>
        <mxCell id="kXBU9kPX4HnNm2tcSIuW-125" style="edgeStyle=none;rounded=0;orthogonalLoop=1;jettySize=auto;html=1;exitX=0.5;exitY=1;exitDx=0;exitDy=0;fontSize=15;endArrow=none;endFill=0;strokeColor=default;" edge="1" parent="1" source="kXBU9kPX4HnNm2tcSIuW-118" target="kXBU9kPX4HnNm2tcSIuW-120">
          <mxGeometry relative="1" as="geometry" />
        </mxCell>
        <mxCell id="kXBU9kPX4HnNm2tcSIuW-126" style="edgeStyle=none;rounded=0;orthogonalLoop=1;jettySize=auto;html=1;exitX=1;exitY=1;exitDx=0;exitDy=0;entryX=0;entryY=0;entryDx=0;entryDy=0;fontSize=15;endArrow=none;endFill=0;strokeColor=default;" edge="1" parent="1" source="kXBU9kPX4HnNm2tcSIuW-118" target="kXBU9kPX4HnNm2tcSIuW-121">
          <mxGeometry relative="1" as="geometry" />
        </mxCell>
        <mxCell id="kXBU9kPX4HnNm2tcSIuW-118" value="2" style="ellipse;whiteSpace=wrap;html=1;aspect=fixed;" vertex="1" parent="1">
          <mxGeometry x="-460" y="40" width="50" height="50" as="geometry" />
        </mxCell>
        <mxCell id="kXBU9kPX4HnNm2tcSIuW-124" style="edgeStyle=none;rounded=0;orthogonalLoop=1;jettySize=auto;html=1;exitX=0;exitY=1;exitDx=0;exitDy=0;fontSize=15;endArrow=none;endFill=0;strokeColor=default;" edge="1" parent="1" source="kXBU9kPX4HnNm2tcSIuW-119" target="kXBU9kPX4HnNm2tcSIuW-122">
          <mxGeometry relative="1" as="geometry" />
        </mxCell>
        <mxCell id="kXBU9kPX4HnNm2tcSIuW-119" value="1" style="ellipse;whiteSpace=wrap;html=1;aspect=fixed;" vertex="1" parent="1">
          <mxGeometry x="-550" y="125" width="50" height="50" as="geometry" />
        </mxCell>
        <mxCell id="kXBU9kPX4HnNm2tcSIuW-120" value="3" style="ellipse;whiteSpace=wrap;html=1;aspect=fixed;" vertex="1" parent="1">
          <mxGeometry x="-420" y="120" width="50" height="50" as="geometry" />
        </mxCell>
        <mxCell id="kXBU9kPX4HnNm2tcSIuW-121" value="4" style="ellipse;whiteSpace=wrap;html=1;aspect=fixed;" vertex="1" parent="1">
          <mxGeometry x="-310" y="120" width="50" height="50" as="geometry" />
        </mxCell>
        <mxCell id="kXBU9kPX4HnNm2tcSIuW-122" value="5" style="ellipse;whiteSpace=wrap;html=1;aspect=fixed;" vertex="1" parent="1">
          <mxGeometry x="-620" y="210" width="50" height="50" as="geometry" />
        </mxCell>
        <mxCell id="kXBU9kPX4HnNm2tcSIuW-127" value="times=3" style="text;html=1;align=center;verticalAlign=middle;resizable=0;points=[];autosize=1;strokeColor=none;fillColor=none;fontSize=15;" vertex="1" parent="1">
          <mxGeometry x="-410" y="55" width="70" height="20" as="geometry" />
        </mxCell>
        <mxCell id="kXBU9kPX4HnNm2tcSIuW-129" value="times=2" style="text;html=1;align=center;verticalAlign=middle;resizable=0;points=[];autosize=1;strokeColor=none;fillColor=none;fontSize=15;" vertex="1" parent="1">
          <mxGeometry x="-550" y="175" width="70" height="20" as="geometry" />
        </mxCell>
        <mxCell id="kXBU9kPX4HnNm2tcSIuW-130" value="times=1" style="text;html=1;align=center;verticalAlign=middle;resizable=0;points=[];autosize=1;strokeColor=none;fillColor=none;fontSize=15;" vertex="1" parent="1">
          <mxGeometry x="-430" y="170" width="70" height="20" as="geometry" />
        </mxCell>
        <mxCell id="kXBU9kPX4HnNm2tcSIuW-131" value="times=1&lt;span style=&quot;color: rgba(0 , 0 , 0 , 0) ; font-family: monospace ; font-size: 0px&quot;&gt;%3CmxGraphModel%3E%3Croot%3E%3CmxCell%20id%3D%220%22%2F%3E%3CmxCell%20id%3D%221%22%20parent%3D%220%22%2F%3E%3CmxCell%20id%3D%222%22%20value%3D%22times%3D3%22%20style%3D%22text%3Bhtml%3D1%3Balign%3Dcenter%3BverticalAlign%3Dmiddle%3Bresizable%3D0%3Bpoints%3D%5B%5D%3Bautosize%3D1%3BstrokeColor%3Dnone%3BfillColor%3Dnone%3BfontSize%3D15%3B%22%20vertex%3D%221%22%20parent%3D%221%22%3E%3CmxGeometry%20x%3D%22-410%22%20y%3D%2255%22%20width%3D%2270%22%20height%3D%2220%22%20as%3D%22geometry%22%2F%3E%3C%2FmxCell%3E%3C%2Froot%3E%3C%2FmxGraphModel%3E&lt;/span&gt;" style="text;html=1;align=center;verticalAlign=middle;resizable=0;points=[];autosize=1;strokeColor=none;fillColor=none;fontSize=15;" vertex="1" parent="1">
          <mxGeometry x="-310" y="165" width="70" height="30" as="geometry" />
        </mxCell>
        <mxCell id="kXBU9kPX4HnNm2tcSIuW-132" value="times=1" style="text;html=1;align=center;verticalAlign=middle;resizable=0;points=[];autosize=1;strokeColor=none;fillColor=none;fontSize=15;" vertex="1" parent="1">
          <mxGeometry x="-630" y="260" width="70" height="20" as="geometry" />
        </mxCell>
      </root>
    </mxGraphModel>
  </diagram>
</mxfile>
